<svg width="44" height="44" viewBox="0 0 44 44" fill="none" xmlns="http://www.w3.org/2000/svg">
  <path
    d="M39.1842 4.8158C35.8072 1.441 30.6702 0 22 0C13.3298 0 8.1928 1.441 4.8158 4.8158C1.4388 8.1928 0 13.3298 0 22C0 30.6702 1.441 35.8072 4.8158 39.1842C8.1928 42.5612 13.3298 44 22 44C30.6702 44 35.8072 42.559 39.1842 39.1842C42.5612 35.8094 44 30.6702 44 22C44 13.3298 42.559 8.1928 39.1842 4.8158ZM36.256 36.256C33.7634 38.7486 29.3678 39.8596 22 39.8596C14.6322 39.8596 10.2366 38.7486 7.744 36.256C5.2514 33.7634 4.1404 29.3678 4.1404 22C4.1404 14.6322 5.2514 10.2366 7.744 7.744C10.2366 5.2514 14.6322 4.1404 22 4.1404C29.3678 4.1404 33.7634 5.2514 36.256 7.744C38.7486 10.2366 39.8596 14.6322 39.8596 22C39.8596 29.3678 38.7486 33.7634 36.256 36.256ZM16.7838 15.5826H13.1428C13.0218 15.5826 12.9184 15.6684 12.8986 15.7872L9.9132 32.648C9.9 32.7206 9.9198 32.7954 9.9682 32.8504C10.0166 32.9076 10.0848 32.9384 10.1596 32.9384H13.8006C13.9216 32.9384 14.025 32.8526 14.0448 32.7338L17.0302 15.873C17.0434 15.8004 17.0236 15.7256 16.9752 15.6706C16.9268 15.6134 16.8586 15.5826 16.7838 15.5826ZM15.653 13.728C16.3262 13.728 16.9642 13.4596 17.4526 12.9712C17.9542 12.4696 18.2336 11.8228 18.238 11.1496C18.2424 10.4786 17.9762 9.8384 17.49 9.3522C17.0016 8.8462 16.3526 8.569 15.6574 8.569C14.9622 8.569 14.3132 8.8484 13.8292 9.35C12.815 10.3642 12.8128 11.9196 13.8314 12.9756C14.3352 13.4618 14.982 13.728 15.653 13.728ZM29.5966 15.1426C27.4758 15.1426 25.6982 15.8312 24.3034 17.1908L24.5366 15.873C24.5498 15.8004 24.53 15.7256 24.4816 15.6706C24.4332 15.6134 24.365 15.5826 24.2902 15.5826H20.6492C20.5282 15.5826 20.4248 15.6684 20.405 15.7872L17.4196 32.648C17.4064 32.7206 17.4262 32.7954 17.4746 32.8504C17.523 32.9076 17.5912 32.9384 17.666 32.9384H21.307C21.428 32.9384 21.5314 32.8526 21.5512 32.7338L23.1528 23.6962C23.6764 20.7416 25.4606 19.0454 28.05 19.0454C29.1104 19.0454 29.9288 19.3534 30.4172 19.9342C30.9342 20.5502 31.097 21.494 30.8902 22.6644L29.1236 32.6458C29.1104 32.7184 29.1302 32.7932 29.1786 32.8482C29.227 32.9054 29.2952 32.9362 29.37 32.9362H33.0132C33.1342 32.9362 33.2376 32.8504 33.2574 32.7316L35.09 22.3784C35.4904 20.119 35.1274 18.238 34.0428 16.9422C33.0528 15.763 31.5172 15.1382 29.601 15.1382L29.5966 15.1426Z"
    fill="#21093A" />
</svg>
